HIERARCHY
ROOT Hips
{
	OFFSET	0.00	0.00	0.00
	CHANNELS 6 Xposition Yposition Zposition Zrotation Xrotation Yrotation
	JOINT Spine
	{
		OFFSET	 0.00	0.01	 0.00
		CHANNELS 3 Zrotation Xrotation Yrotation
		JOINT Spine1
		{
			OFFSET	 0.00	 2.45913012437421	 0.00
			CHANNELS 3 Zrotation Xrotation Yrotation
            JOINT Neck
            {
                OFFSET	 0.00	 2.48462964506057	 0.00
                CHANNELS 3 Zrotation Xrotation Yrotation
                JOINT Head
                {
                    OFFSET	 0.00	 0.927524780924562	 0.00
                    CHANNELS 3 Zrotation Xrotation Yrotation
                    End Site 
                    {
                        OFFSET	 0.00	 1.14999962169752	 0.00
                    }
                }
            }
			JOINT LeftShoulder
			{
				OFFSET	 0.00	 2.48462964506057	 0.00
				CHANNELS 3 Zrotation Xrotation Yrotation
				JOINT LeftUpArm
				{
					OFFSET	 0.00	 1.24881979654096	 0.00
					CHANNELS 3 Zrotation Xrotation Yrotation
					JOINT LeftForeArm
					{
						OFFSET	 0.00	2.59758046908119	 0.00
						CHANNELS 3 Zrotation Xrotation Yrotation
						JOINT LeftHand
						{
							OFFSET	 0.00	2.45542024364365	 0.00
							CHANNELS 3 Zrotation Xrotation Yrotation
							JOINT LeftHandThumb 
							{
								OFFSET	 0.00	0.00	 0.00
								CHANNELS 3 Zrotation Xrotation Yrotation
								End Site
								{
									OFFSET	 0.00	0.00	1.00000003353624
								}
							}
							JOINT L_Wrist_End 
							{
								OFFSET	 0.00	0.99999967115358	 0.00
								CHANNELS 3 Zrotation Xrotation Yrotation
								End Site 
								{
									OFFSET	 0.00	 0.00	 0.00
								}
							}
						}
					}
				}
			}
			JOINT RightShoulder
			{
				OFFSET	 0.00	 2.48462964506057	 0.00
				CHANNELS 3 Zrotation Xrotation Yrotation
				JOINT RightUpArm
				{
					OFFSET	 0.00	 1.24881979654096	 0.00
					CHANNELS 3 Zrotation Xrotation Yrotation
					JOINT RightForeArm
					{
						OFFSET	 0.00	2.59758046908119	 0.00
						CHANNELS 3 Zrotation Xrotation Yrotation
						JOINT RightHand
						{
							OFFSET	 0.00	2.45542024364365	 0.00
							CHANNELS 3 Zrotation Xrotation Yrotation
							JOINT RightHandThumb 
							{
								OFFSET	 0.00	0.00	 0.00
								CHANNELS 3 Zrotation Xrotation Yrotation
								End Site
								{
									OFFSET	 0.00	0.00	1.00000003353624
								}
							}
							JOINT R_Wrist_End 
							{
								OFFSET	 0.00	0.99999967115358	 0.00
								CHANNELS 3 Zrotation Xrotation Yrotation
								End Site 
								{
									OFFSET	 0.00	 0.00	 0.00
								}
							}
						}
					}
				}
			}
		}
	}
	JOINT LeftUpLeg
	{
		OFFSET	 1.2719394002717	 0.00	 0.00
		CHANNELS 3 Zrotation Xrotation Yrotation
		JOINT LeftLowLeg
		{
			OFFSET	 0.00	-4.3429100912261	 0.00
			CHANNELS 3 Zrotation Xrotation Yrotation
			JOINT LeftFoot
			{
				OFFSET	 0.00	-4.48767017425826	 0.00
				CHANNELS 3 Zrotation Xrotation Yrotation
				JOINT LeftToeBase
                {
                    OFFSET	 0.00	0.00	 1.51507020887566
                    CHANNELS 3 Zrotation Xrotation Yrotation
                    End Site 
                    {
                        OFFSET	 0.00	0.00	 0.75000010571191
                    }
                }
			}
		}
	}
	JOINT RightUpLeg
	{
		OFFSET	 -1.2719393604653	 0.00	 0.00
		CHANNELS 3 Zrotation Xrotation Yrotation
		JOINT RightLowLeg
		{
			OFFSET	 0.00	-4.3429100912261	 0.00
			CHANNELS 3 Zrotation Xrotation Yrotation
			JOINT RightFoot
			{
				OFFSET	 0.00	-4.48767017425826	 0.00
				CHANNELS 3 Zrotation Xrotation Yrotation
				JOINT RightToeBase
                {
                    OFFSET	 0.00	0.00	 1.51507020887566
                    CHANNELS 3 Zrotation Xrotation Yrotation
                    End Site 
                    {
                        OFFSET	 0.00	0.00	 0.749999965609858
                    }
                }   
			}
		}
	}
}
MOTION 
Frames:	16 
Frame Time: 0.02 
 0.8929930114746094 5.449119873046875 9.356749877929687 -150.525 83.9863 506.783 0.763563 -4.43223 -0.700973 5.93268 -12.2099 -0.186712 -13.9741 70.8463 724.793 61.1381 -77.8025 405.821 -115.0047 -11.3575 -10.0735 9.03554 7.7172 -25.8557 0.0 10.5137 0.0 25.1181 -10.3202 22.8986 0.0 0.0 0.0 0.0 0.0 0.0 112.315704 -7.53949 -359.765 -8.51933 -0.290907 50.1849 0.0 16.5523 0.0 -24.6402 -10.3912 -48.9717 0.0 0.0 0.0 0.0 0.0 0.0 1.73666 -4.58214 3.63606 0.0 7.77348 0.0 -13.3066 1.3836002 7.90209 0.0 -30.096199 0.0 7.57725 -3.88746 0.758973 0.0 9.17116 0.0 15.307 3.7634 -16.6406 0.0 -38.6385 0.0 
  0.8920839691162109 5.449650268554688 9.3568798828125 -150.556 83.9949 506.865 0.778733 -4.39398 -0.704689 5.91556 -12.2041 -0.192302 -14.2913 70.8292 725.19 61.1004 -77.7959 405.719 -115.0053 -11.3476 -10.0726 9.04701 7.74729 -25.8713 0.0 10.4093 0.0 25.0582 -10.3799 22.9328 0.0 0.0 0.0 0.0 0.0 0.0 112.2808 -7.54597 -359.703 -8.45584 -0.300341 50.0544 0.0 16.5644 0.0 -24.6918 -10.4515 -48.7683 0.0 0.0 0.0 0.0 0.0 0.0 1.73227 -4.60401 3.58669 0.0 7.80227 0.0 -13.3118 1.394 7.90098 0.0 -30.099499 0.0 7.56501 -3.88201 0.704571 0.0 9.15243 0.0 15.3826 3.7810001 -16.5626 0.0 -38.8553 0.0 
  0.8917169952392578 5.4489697265625 9.356959838867187 -150.614 83.9991 506.926 0.794616 -4.38973 -0.691251 5.90531 -12.176 -0.181789 -14.3687 70.836 725.277 61.18 -77.8099 405.832 -114.9888 -11.3277 -10.0321 9.04045 7.72391 -25.8946 0.0 10.3731 0.0 25.0328 -10.4416 22.9519 0.0 0.0 0.0 0.0 0.0 0.0 112.2702 -7.5597 -359.687 -8.4383 -0.304854 50.0933 0.0 16.5653 0.0 -24.5809 -10.4455 -48.8177 0.0 0.0 0.0 0.0 0.0 0.0 1.72652 -4.59369 3.5968 0.0 7.78973 0.0 -13.3054 1.4056997 7.89752 0.0 -30.0984 0.0 7.56161 -3.87165 0.752415 0.0 9.14211 0.0 15.4004 3.7622995 -16.5991 0.0 -38.836098 0.0 
  0.8906549835205078 5.449130249023438 9.357030029296874 -150.553 84.0073 506.932 0.830045 -4.3411 -0.694793 5.85376 -12.1636 -0.189107 -14.2705 70.856 725.176 61.2659 -77.7825 406.041 -114.943 -11.3034 -9.92302 9.03265 7.68757 -25.9745 0.0 10.3707 0.0 25.0641 -10.5297 22.9329 0.0 0.0 0.0 0.0 0.0 0.0 112.2796 -7.61752 -359.718 -8.43611 -0.288655 50.048 0.0 16.5467 0.0 -24.4998 -10.5532 -48.8606 0.0 0.0 0.0 0.0 0.0 0.0 1.73237 -4.60296 3.58208 0.0 7.80341 0.0 -13.292 1.4289999 7.86096 0.0 -30.1322 0.0 7.56874 -3.85789 0.754027 0.0 9.13531 0.0 15.4103 3.7420998 -16.6574 0.0 -38.8239 0.0 
  0.8897489929199218 5.44875 9.357080078125 -150.525 84.0119 506.962 0.836324 -4.34133 -0.704548 5.85812 -12.1096 -0.203697 -14.2284 70.8653 725.114 61.2854 -77.7928 406.098 -114.923996 -11.3175 -9.87833 9.0132 7.70949 -25.9541 0.0 10.3433 0.0 25.1466 -10.5569 22.7652 0.0 0.0 0.0 0.0 0.0 0.0 112.2992 -7.62506 -359.722 -8.48779 -0.296839 50.0455 0.0 16.5137 0.0 -24.44 -10.5962 -48.841 0.0 0.0 0.0 0.0 0.0 0.0 1.73357 -4.60148 3.54389 0.0 7.79847 0.0 -13.3064 1.4378996 7.84185 0.0 -30.1406 0.0 7.57377 -3.85067 0.694175 0.0 9.15602 0.0 15.3641 3.7136002 -16.701 0.0 -38.5589 0.0 
  0.8891169738769531 5.447559814453125 9.357030029296874 -150.528 84.0208 507.007 0.841269 -4.36031 -0.705685 5.8672 -12.0337 -0.210755 -14.2154 70.8901 725.085 61.425 -77.816 406.213 -114.9302 -11.3274 -9.90912 9.00847 7.75735 -25.8994 0.0 10.3074 0.0 25.2348 -10.5475 22.6642 0.0 0.0 0.0 0.0 0.0 0.0 112.2935 -7.62394 -359.683 -8.50721 -0.305008 49.9883 0.0 16.4856 0.0 -24.5083 -10.5856 -48.7498 0.0 0.0 0.0 0.0 0.0 0.0 1.73008 -4.5839 3.54457 0.0 7.78008 0.0 -13.3123 1.4528999 7.80852 0.0 -30.1012 0.0 7.56738 -3.81611 0.70745 0.0 9.10677 0.0 15.4234 3.7194004 -16.683 0.0 -38.8004 0.0 
  0.8882369995117188 5.447009887695312 9.356790161132812 -150.509 84.0322 507.066 0.848651 -4.3648 -0.723202 5.84439 -11.9857 -0.232505 -14.1196 70.9202 724.98 61.5027 -77.7992 406.235 -114.9326 -11.3437 -10.0015 9.01634 7.84752 -25.93 0.0 10.2842 0.0 25.2328 -10.5109 22.8427 0.0 0.0 0.0 0.0 0.0 0.0 112.2895 -7.60493 -359.719 -8.4902 -0.333088 50.2112 0.0 16.4617 0.0 -24.5533 -10.4726 -48.8382 0.0 0.0 0.0 0.0 0.0 0.0 1.72598 -4.57828 3.48604 0.0 7.77237 0.0 -13.3128 1.4608002 7.79414 0.0 -30.0949 0.0 7.57509 -3.79142 0.716927 0.0 9.10218 0.0 15.3761 3.6689997 -16.829 0.0 -38.5698 0.0 
  0.8871179962158203 5.446920166015625 9.356680297851563 -150.47 84.034 507.122 0.848041 -4.36156 -0.74172 5.84439 -11.9733 -0.252533 -14.1267 70.9874 724.976 61.6055 -77.8057 406.278 -114.917 -11.3129 -9.96461 9.01133 7.80012 -25.8013 0.0 10.3884 0.0 25.1206 -10.5753 22.7148 0.0 0.0 0.0 0.0 0.0 0.0 112.2983 -7.65137 -359.755 -8.50905 -0.299833 50.2646 0.0 16.4579 0.0 -24.6174 -10.4739 -48.6093 0.0 0.0 0.0 0.0 0.0 0.0 1.7312 -4.59497 3.42378 0.0 7.78365 0.0 -13.3213 1.4735003 7.76156 0.0 -30.1562 0.0 7.58512 -3.78247 0.701517 0.0 9.09633 0.0 15.386 3.6371002 -16.8989 0.0 -38.5084 0.0 
  0.8864949798583984 5.446079711914063 9.35666015625 -150.485 84.0334 507.203 0.849527 -4.38738 -0.758832 5.84325 -11.946 -0.272309 -13.9596 71.0727 724.758 61.4243 -77.7802 406.15 -114.8419 -11.3398 -9.9023 8.92207 7.7293 -25.7166 0.0 10.6021 0.0 24.9067 -10.6784 22.5541 0.0 0.0 0.0 0.0 0.0 0.0 112.298904 -7.66746 -359.724 -8.52254 -0.276083 50.2011 0.0 16.4611 0.0 -24.5816 -10.4148 -48.5548 0.0 0.0 0.0 0.0 0.0 0.0 1.73114 -4.59713 3.41667 0.0 7.77267 0.0 -13.3034 1.4940004 7.7208 0.0 -30.1279 0.0 7.58593 -3.77243 0.67745 0.0 9.08367 0.0 15.4018 3.6166 -16.9282 0.0 -38.5058 0.0 
  0.8860639953613281 5.44552001953125 9.356640014648438 -150.526 84.0288 507.284 0.848066 -4.40361 -0.760029 5.85517 -11.943 -0.273873 -13.9647 71.1518 724.741 61.3213 -77.7777 406.048 -114.8561 -11.3426 -9.81868 8.94417 7.75845 -25.8446 0.0 10.6005 0.0 24.8838 -10.6144 22.4891 0.0 0.0 0.0 0.0 0.0 0.0 112.291504 -7.68877 -359.735 -8.53587 -0.271578 50.156 0.0 16.4752 0.0 -24.5371 -10.4272 -48.5093 0.0 0.0 0.0 0.0 0.0 0.0 1.73102 -4.60393 3.40058 0.0 7.76824 0.0 -13.3134 1.5052004 7.69909 0.0 -30.1541 0.0 7.58806 -3.7651 0.704788 0.0 9.06787 0.0 15.4425 3.5952997 -16.9659 0.0 -38.576 0.0 
  0.8855889892578125 5.444719848632812 9.356619873046874 -150.613 84.0228 507.42 0.840829 -4.43428 -0.76872 5.87135 -11.9263 -0.283585 -13.8853 71.2658 724.613 61.2289 -77.7731 406.023 -114.8687 -11.3698 -9.90994 8.93455 7.84342 -25.7267 0.0 10.5733 0.0 24.9734 -10.5173 22.4653 0.0 0.0 0.0 0.0 0.0 0.0 112.2794 -7.71736 -359.753 -8.54541 -0.246364 50.2019 0.0 16.4934 0.0 -24.403 -10.45 -48.4714 0.0 0.0 0.0 0.0 0.0 0.0 1.72702 -4.61233 3.37257 0.0 7.75965 0.0 -13.3351 1.5129995 7.67292 0.0 -30.1493 0.0 7.57788 -3.76062 0.663702 0.0 9.0423 0.0 15.5044 3.5993996 -16.9033 0.0 -38.6946 0.0 
  0.8851940155029296 5.4436798095703125 9.356589965820312 -150.637 84.0227 507.489 0.85285 -4.4644 -0.761807 5.87437 -11.9084 -0.279074 -13.8607 71.3913 724.535 61.0059 -77.7786 405.78 -114.8672 -11.3818 -9.93482 8.93117 7.89216 -25.5179 0.0 10.6131 0.0 24.9371 -10.5781 22.3504 0.0 0.0 0.0 0.0 0.0 0.0 112.2498 -7.71039 -359.694 -8.51663 -0.284174 50.245 0.0 16.5705 0.0 -24.3124 -10.5275 -48.4653 0.0 0.0 0.0 0.0 0.0 0.0 1.7253 -4.61437 3.3614 0.0 7.7586 0.0 -13.3179 1.5281 7.64837 0.0 -30.146 0.0 7.57367 -3.74438 0.652832 0.0 9.0129 0.0 15.5266 3.5992002 -16.9286 0.0 -38.732597 0.0 
  0.8849600219726562 5.44302978515625 9.356519775390625 -150.612 84.0292 507.493 0.865893 -4.49726 -0.749173 5.86297 -11.8552 -0.270767 -14.2914 71.4151 725.06 60.9071 -77.7687 405.521 -114.8893 -11.3633 -9.88266 8.95672 7.91032 -25.57 0.0 10.6412 0.0 24.9346 -10.5588 22.3853 0.0 0.0 0.0 0.0 0.0 0.0 112.2423 -7.73752 -359.667 -8.50963 -0.263941 50.1618 0.0 16.5434 0.0 -24.4456 -10.4471 -48.3792 0.0 0.0 0.0 0.0 0.0 0.0 1.72308 -4.60937 3.34065 0.0 7.76097 0.0 -13.3306 1.5248003 7.63975 0.0 -30.0997 0.0 7.57736 -3.73125 0.652613 0.0 9.01622 0.0 15.4154 3.5797997 -17.0123 0.0 -38.2728 0.0 
  0.8846720123291015 5.4425201416015625 9.3564697265625 -150.568 84.035 507.478 0.905235 -4.50522 -0.740135 5.78746 -11.869 -0.26333 -14.4592 71.4868 725.288 60.7432 -77.6984 405.388 -114.8474 -11.3464 -9.85265 8.93224 7.88529 -25.6516 0.0 10.7433 0.0 24.8575 -10.5332 22.4564 0.0 0.0 0.0 0.0 0.0 0.0 112.2418 -7.73505 -359.697 -8.46551 -0.295623 50.1456 0.0 16.5569 0.0 -24.4748 -10.4235 -48.3733 0.0 0.0 0.0 0.0 0.0 0.0 1.7239 -4.60592 3.33551 0.0 7.76499 0.0 -13.3301 1.5264997 7.62428 0.0 -30.1008 0.0 7.58174 -3.71507 0.659896 0.0 9.00311 0.0 15.4325 3.5706997 -17.0534 0.0 -38.2855 0.0 
  0.8845110321044922 5.442150268554688 9.356439819335938 -150.553 84.0461 507.485 0.914583 -4.5229 -0.738396 5.75812 -11.8472 -0.263389 -14.3656 71.5372 725.17 60.5999 -77.6698 405.385 -114.850296 -11.3432 -9.84572 8.95795 7.8763 -25.4567 0.0 10.7719 0.0 24.765 -10.5528 22.2341 0.0 0.0 0.0 0.0 0.0 0.0 112.2896 -7.75948 -359.795 -8.52136 -0.271312 50.1599 0.0 16.5121 0.0 -24.5007 -10.4267 -48.3293 0.0 0.0 0.0 0.0 0.0 0.0 1.71958 -4.60177 3.30973 0.0 7.77542 0.0 -13.3276 1.5309 7.62184 0.0 -30.125301 0.0 7.57732 -3.69589 0.648158 0.0 8.99491 0.0 15.4559 3.5505 -17.0575 0.0 -38.1989 0.0 
  0.8844180297851563 5.4419097900390625 9.356229858398438 -150.481 84.0566 507.429 0.924012 -4.53912 -0.734789 5.74842 -11.8165 -0.262554 -14.4731 71.5531 725.286 60.5775 -77.681 405.446 -114.8369 -11.3617 -9.83575 8.89287 7.8527 -25.5079 0.0 10.8759 0.0 24.7641 -10.5261 22.2203 0.0 0.0 0.0 0.0 0.0 0.0 112.257095 -7.72215 -359.743 -8.46467 -0.288078 50.0541 0.0 16.5222 0.0 -24.4986 -10.4791 -48.3382 0.0 0.0 0.0 0.0 0.0 0.0 1.71951 -4.59389 3.286 0.0 7.78309 0.0 -13.3323 1.5202999 7.62618 0.0 -30.124699 0.0 7.58089 -3.67712 0.67197 0.0 8.98773 0.0 15.4804 3.5300999 -17.0916 0.0 -38.1964 0.0 
